<mxfile host="65bd71144e">
    <diagram id="qB7_1-ZwaY41T0S_a8mY" name="Db">
        <mxGraphModel dx="1090" dy="787" grid="1" gridSize="10" guides="1" tooltips="1" connect="1" arrows="1" fold="1" page="1" pageScale="1" pageWidth="827" pageHeight="1169" math="0" shadow="0">
            <root>
                <mxCell id="0"/>
                <mxCell id="1" parent="0"/>
                <mxCell id="p7_WwTFV296BdYuLMu8M-1" value="tacks" style="swimlane;fontStyle=0;childLayout=stackLayout;horizontal=1;startSize=30;horizontalStack=0;resizeParent=1;resizeParentMax=0;resizeLast=0;collapsible=1;marginBottom=0;whiteSpace=wrap;html=1;" vertex="1" parent="1">
                    <mxGeometry x="30" y="360" width="140" height="180" as="geometry"/>
                </mxCell>
                <mxCell id="p7_WwTFV296BdYuLMu8M-2" value="id" style="text;strokeColor=none;fillColor=none;align=left;verticalAlign=middle;spacingLeft=4;spacingRight=4;overflow=hidden;points=[[0,0.5],[1,0.5]];portConstraint=eastwest;rotatable=0;whiteSpace=wrap;html=1;" vertex="1" parent="p7_WwTFV296BdYuLMu8M-1">
                    <mxGeometry y="30" width="140" height="30" as="geometry"/>
                </mxCell>
                <mxCell id="p7_WwTFV296BdYuLMu8M-3" value="title" style="text;strokeColor=none;fillColor=none;align=left;verticalAlign=middle;spacingLeft=4;spacingRight=4;overflow=hidden;points=[[0,0.5],[1,0.5]];portConstraint=eastwest;rotatable=0;whiteSpace=wrap;html=1;" vertex="1" parent="p7_WwTFV296BdYuLMu8M-1">
                    <mxGeometry y="60" width="140" height="30" as="geometry"/>
                </mxCell>
                <mxCell id="p7_WwTFV296BdYuLMu8M-4" value="description" style="text;strokeColor=none;fillColor=none;align=left;verticalAlign=middle;spacingLeft=4;spacingRight=4;overflow=hidden;points=[[0,0.5],[1,0.5]];portConstraint=eastwest;rotatable=0;whiteSpace=wrap;html=1;" vertex="1" parent="p7_WwTFV296BdYuLMu8M-1">
                    <mxGeometry y="90" width="140" height="30" as="geometry"/>
                </mxCell>
                <mxCell id="p7_WwTFV296BdYuLMu8M-7" value="data_add" style="text;strokeColor=none;fillColor=none;align=left;verticalAlign=middle;spacingLeft=4;spacingRight=4;overflow=hidden;points=[[0,0.5],[1,0.5]];portConstraint=eastwest;rotatable=0;whiteSpace=wrap;html=1;" vertex="1" parent="p7_WwTFV296BdYuLMu8M-1">
                    <mxGeometry y="120" width="140" height="30" as="geometry"/>
                </mxCell>
                <mxCell id="p7_WwTFV296BdYuLMu8M-8" value="id_user" style="text;strokeColor=none;fillColor=none;align=left;verticalAlign=middle;spacingLeft=4;spacingRight=4;overflow=hidden;points=[[0,0.5],[1,0.5]];portConstraint=eastwest;rotatable=0;whiteSpace=wrap;html=1;" vertex="1" parent="p7_WwTFV296BdYuLMu8M-1">
                    <mxGeometry y="150" width="140" height="30" as="geometry"/>
                </mxCell>
                <mxCell id="p7_WwTFV296BdYuLMu8M-9" value="users" style="swimlane;fontStyle=0;childLayout=stackLayout;horizontal=1;startSize=30;horizontalStack=0;resizeParent=1;resizeParentMax=0;resizeLast=0;collapsible=1;marginBottom=0;whiteSpace=wrap;html=1;" vertex="1" parent="1">
                    <mxGeometry x="230" y="360" width="140" height="150" as="geometry"/>
                </mxCell>
                <mxCell id="p7_WwTFV296BdYuLMu8M-10" value="id" style="text;strokeColor=none;fillColor=none;align=left;verticalAlign=middle;spacingLeft=4;spacingRight=4;overflow=hidden;points=[[0,0.5],[1,0.5]];portConstraint=eastwest;rotatable=0;whiteSpace=wrap;html=1;" vertex="1" parent="p7_WwTFV296BdYuLMu8M-9">
                    <mxGeometry y="30" width="140" height="30" as="geometry"/>
                </mxCell>
                <mxCell id="p7_WwTFV296BdYuLMu8M-11" value="username" style="text;strokeColor=none;fillColor=none;align=left;verticalAlign=middle;spacingLeft=4;spacingRight=4;overflow=hidden;points=[[0,0.5],[1,0.5]];portConstraint=eastwest;rotatable=0;whiteSpace=wrap;html=1;" vertex="1" parent="p7_WwTFV296BdYuLMu8M-9">
                    <mxGeometry y="60" width="140" height="30" as="geometry"/>
                </mxCell>
                <mxCell id="p7_WwTFV296BdYuLMu8M-12" value="name" style="text;strokeColor=none;fillColor=none;align=left;verticalAlign=middle;spacingLeft=4;spacingRight=4;overflow=hidden;points=[[0,0.5],[1,0.5]];portConstraint=eastwest;rotatable=0;whiteSpace=wrap;html=1;" vertex="1" parent="p7_WwTFV296BdYuLMu8M-9">
                    <mxGeometry y="90" width="140" height="30" as="geometry"/>
                </mxCell>
                <mxCell id="YJdR36JkWQ3VEjK8qTZI-1" value="photo" style="text;strokeColor=none;fillColor=none;align=left;verticalAlign=middle;spacingLeft=4;spacingRight=4;overflow=hidden;points=[[0,0.5],[1,0.5]];portConstraint=eastwest;rotatable=0;whiteSpace=wrap;html=1;" vertex="1" parent="p7_WwTFV296BdYuLMu8M-9">
                    <mxGeometry y="120" width="140" height="30" as="geometry"/>
                </mxCell>
                <mxCell id="p7_WwTFV296BdYuLMu8M-13" style="edgeStyle=none;html=1;exitX=1;exitY=0.5;exitDx=0;exitDy=0;entryX=0;entryY=0.5;entryDx=0;entryDy=0;" edge="1" parent="1" source="p7_WwTFV296BdYuLMu8M-8" target="p7_WwTFV296BdYuLMu8M-10">
                    <mxGeometry relative="1" as="geometry"/>
                </mxCell>
                <mxCell id="p7_WwTFV296BdYuLMu8M-18" value="Уникальный адишник системы авторизации" style="whiteSpace=wrap;html=1;" vertex="1" parent="1">
                    <mxGeometry x="480" y="360" width="120" height="60" as="geometry"/>
                </mxCell>
                <mxCell id="p7_WwTFV296BdYuLMu8M-19" style="edgeStyle=none;html=1;entryX=-0.008;entryY=0.617;entryDx=0;entryDy=0;entryPerimeter=0;exitX=1;exitY=0.5;exitDx=0;exitDy=0;" edge="1" parent="1" source="p7_WwTFV296BdYuLMu8M-11" target="p7_WwTFV296BdYuLMu8M-18">
                    <mxGeometry relative="1" as="geometry"/>
                </mxCell>
                <mxCell id="p7_WwTFV296BdYuLMu8M-21" value="Имя фамилия если есть" style="whiteSpace=wrap;html=1;" vertex="1" parent="1">
                    <mxGeometry x="480" y="435" width="120" height="60" as="geometry"/>
                </mxCell>
                <mxCell id="p7_WwTFV296BdYuLMu8M-22" style="edgeStyle=none;html=1;entryX=0;entryY=0.5;entryDx=0;entryDy=0;exitX=1;exitY=0.5;exitDx=0;exitDy=0;" edge="1" parent="1" source="p7_WwTFV296BdYuLMu8M-12" target="p7_WwTFV296BdYuLMu8M-21">
                    <mxGeometry relative="1" as="geometry"/>
                </mxCell>
                <mxCell id="wJqSsDBiHtMMwJeEFy1s-1" value="&lt;font style=&quot;font-size: 23px;&quot;&gt;Структура БД&lt;/font&gt;" style="text;html=1;align=center;verticalAlign=middle;resizable=0;points=[];autosize=1;strokeColor=none;fillColor=none;" vertex="1" parent="1">
                    <mxGeometry x="30" y="290" width="170" height="40" as="geometry"/>
                </mxCell>
                <mxCell id="wJqSsDBiHtMMwJeEFy1s-2" value="&lt;font style=&quot;font-size: 23px;&quot;&gt;Структура ООП&lt;/font&gt;" style="text;html=1;align=center;verticalAlign=middle;resizable=0;points=[];autosize=1;strokeColor=none;fillColor=none;" vertex="1" parent="1">
                    <mxGeometry x="30" y="600" width="190" height="40" as="geometry"/>
                </mxCell>
                <mxCell id="wJqSsDBiHtMMwJeEFy1s-3" value="tacks" style="swimlane;fontStyle=0;childLayout=stackLayout;horizontal=1;startSize=30;horizontalStack=0;resizeParent=1;resizeParentMax=0;resizeLast=0;collapsible=1;marginBottom=0;whiteSpace=wrap;html=1;" vertex="1" parent="1">
                    <mxGeometry x="30" y="650" width="260" height="180" as="geometry"/>
                </mxCell>
                <mxCell id="wJqSsDBiHtMMwJeEFy1s-8" value="add / Добавить новую задачу" style="text;strokeColor=none;fillColor=none;align=left;verticalAlign=middle;spacingLeft=4;spacingRight=4;overflow=hidden;points=[[0,0.5],[1,0.5]];portConstraint=eastwest;rotatable=0;whiteSpace=wrap;html=1;" vertex="1" parent="wJqSsDBiHtMMwJeEFy1s-3">
                    <mxGeometry y="30" width="260" height="30" as="geometry"/>
                </mxCell>
                <mxCell id="wJqSsDBiHtMMwJeEFy1s-9" value="getById / Получить задау по айди" style="text;strokeColor=none;fillColor=none;align=left;verticalAlign=middle;spacingLeft=4;spacingRight=4;overflow=hidden;points=[[0,0.5],[1,0.5]];portConstraint=eastwest;rotatable=0;whiteSpace=wrap;html=1;" vertex="1" parent="wJqSsDBiHtMMwJeEFy1s-3">
                    <mxGeometry y="60" width="260" height="30" as="geometry"/>
                </mxCell>
                <mxCell id="wJqSsDBiHtMMwJeEFy1s-10" value="getList / Список всех задач пользоватлея" style="text;strokeColor=none;fillColor=none;align=left;verticalAlign=middle;spacingLeft=4;spacingRight=4;overflow=hidden;points=[[0,0.5],[1,0.5]];portConstraint=eastwest;rotatable=0;whiteSpace=wrap;html=1;" vertex="1" parent="wJqSsDBiHtMMwJeEFy1s-3">
                    <mxGeometry y="90" width="260" height="30" as="geometry"/>
                </mxCell>
                <mxCell id="wJqSsDBiHtMMwJeEFy1s-11" value="editById / Редактировать задачу" style="text;strokeColor=none;fillColor=none;align=left;verticalAlign=middle;spacingLeft=4;spacingRight=4;overflow=hidden;points=[[0,0.5],[1,0.5]];portConstraint=eastwest;rotatable=0;whiteSpace=wrap;html=1;" vertex="1" parent="wJqSsDBiHtMMwJeEFy1s-3">
                    <mxGeometry y="120" width="260" height="30" as="geometry"/>
                </mxCell>
                <mxCell id="wJqSsDBiHtMMwJeEFy1s-12" value="deleteById / Удалить задачу" style="text;strokeColor=none;fillColor=none;align=left;verticalAlign=middle;spacingLeft=4;spacingRight=4;overflow=hidden;points=[[0,0.5],[1,0.5]];portConstraint=eastwest;rotatable=0;whiteSpace=wrap;html=1;" vertex="1" parent="wJqSsDBiHtMMwJeEFy1s-3">
                    <mxGeometry y="150" width="260" height="30" as="geometry"/>
                </mxCell>
            </root>
        </mxGraphModel>
    </diagram>
    <diagram id="sMZ3bmqZWzdpbVZdH3U9" name="UI(main)">
        <mxGraphModel dx="1090" dy="787" grid="1" gridSize="10" guides="1" tooltips="1" connect="1" arrows="1" fold="1" page="1" pageScale="1" pageWidth="827" pageHeight="1169" math="0" shadow="0">
            <root>
                <mxCell id="0"/>
                <mxCell id="1" parent="0"/>
                <mxCell id="rPJr6iT-sZOP7stohRm4-1" value="" style="whiteSpace=wrap;html=1;" vertex="1" parent="1">
                    <mxGeometry x="50" y="230" width="740" height="120" as="geometry"/>
                </mxCell>
                <mxCell id="rPJr6iT-sZOP7stohRm4-2" value="Названия" style="text;html=1;align=center;verticalAlign=middle;resizable=0;points=[];autosize=1;strokeColor=none;fillColor=none;" vertex="1" parent="1">
                    <mxGeometry x="60" y="240" width="80" height="30" as="geometry"/>
                </mxCell>
                <mxCell id="rPJr6iT-sZOP7stohRm4-3" value="Описание" style="text;html=1;align=center;verticalAlign=middle;resizable=0;points=[];autosize=1;strokeColor=none;fillColor=none;" vertex="1" parent="1">
                    <mxGeometry x="60" y="260" width="80" height="30" as="geometry"/>
                </mxCell>
                <mxCell id="rPJr6iT-sZOP7stohRm4-4" value="Добавить" style="whiteSpace=wrap;html=1;fillColor=#d5e8d4;strokeColor=#82b366;" vertex="1" parent="1">
                    <mxGeometry x="70" y="300" width="120" height="30" as="geometry"/>
                </mxCell>
                <mxCell id="rPJr6iT-sZOP7stohRm4-6" value="" style="whiteSpace=wrap;html=1;" vertex="1" parent="1">
                    <mxGeometry x="50" y="420" width="740" height="80" as="geometry"/>
                </mxCell>
                <mxCell id="rPJr6iT-sZOP7stohRm4-8" value="Названия" style="text;html=1;align=center;verticalAlign=middle;resizable=0;points=[];autosize=1;strokeColor=none;fillColor=none;" vertex="1" parent="1">
                    <mxGeometry x="100" y="420" width="80" height="30" as="geometry"/>
                </mxCell>
                <mxCell id="rPJr6iT-sZOP7stohRm4-9" value="Описание" style="text;html=1;align=center;verticalAlign=middle;resizable=0;points=[];autosize=1;strokeColor=none;fillColor=none;" vertex="1" parent="1">
                    <mxGeometry x="100" y="445" width="80" height="30" as="geometry"/>
                </mxCell>
                <mxCell id="rPJr6iT-sZOP7stohRm4-10" value="редактировать" style="whiteSpace=wrap;html=1;" vertex="1" parent="1">
                    <mxGeometry x="580" y="446" width="90" height="30" as="geometry"/>
                </mxCell>
                <mxCell id="rPJr6iT-sZOP7stohRm4-11" value="" style="html=1;verticalLabelPosition=bottom;labelBackgroundColor=#ffffff;verticalAlign=top;shadow=0;dashed=0;strokeWidth=2;shape=mxgraph.ios7.misc.select;fillColor=#0080f0;strokeColor=#ffffff;sketch=0;" vertex="1" parent="1">
                    <mxGeometry x="70" y="445" width="30" height="32" as="geometry"/>
                </mxCell>
                <mxCell id="rPJr6iT-sZOP7stohRm4-13" value="Удалить" style="whiteSpace=wrap;html=1;" vertex="1" parent="1">
                    <mxGeometry x="680" y="447" width="70" height="30" as="geometry"/>
                </mxCell>
                <mxCell id="rPJr6iT-sZOP7stohRm4-14" value="Дата добавления" style="text;html=1;align=center;verticalAlign=middle;resizable=0;points=[];autosize=1;strokeColor=none;fillColor=none;" vertex="1" parent="1">
                    <mxGeometry x="100" y="470" width="120" height="30" as="geometry"/>
                </mxCell>
                <mxCell id="rPJr6iT-sZOP7stohRm4-15" value="&lt;font style=&quot;font-size: 21px;&quot;&gt;Список всех задач&lt;/font&gt;" style="text;html=1;align=center;verticalAlign=middle;resizable=0;points=[];autosize=1;strokeColor=none;fillColor=none;" vertex="1" parent="1">
                    <mxGeometry x="50" y="380" width="200" height="40" as="geometry"/>
                </mxCell>
                <mxCell id="rPJr6iT-sZOP7stohRm4-16" value="&lt;font style=&quot;font-size: 21px;&quot;&gt;Добавить новую задачу&lt;/font&gt;" style="text;html=1;align=center;verticalAlign=middle;resizable=0;points=[];autosize=1;strokeColor=none;fillColor=none;" vertex="1" parent="1">
                    <mxGeometry x="50" y="190" width="250" height="40" as="geometry"/>
                </mxCell>
                <mxCell id="rPJr6iT-sZOP7stohRm4-17" value="" style="whiteSpace=wrap;html=1;" vertex="1" parent="1">
                    <mxGeometry x="50" y="510" width="740" height="80" as="geometry"/>
                </mxCell>
                <mxCell id="rPJr6iT-sZOP7stohRm4-18" value="Названия" style="text;html=1;align=center;verticalAlign=middle;resizable=0;points=[];autosize=1;strokeColor=none;fillColor=none;" vertex="1" parent="1">
                    <mxGeometry x="100" y="510" width="80" height="30" as="geometry"/>
                </mxCell>
                <mxCell id="rPJr6iT-sZOP7stohRm4-19" value="Описание" style="text;html=1;align=center;verticalAlign=middle;resizable=0;points=[];autosize=1;strokeColor=none;fillColor=none;" vertex="1" parent="1">
                    <mxGeometry x="100" y="535" width="80" height="30" as="geometry"/>
                </mxCell>
                <mxCell id="rPJr6iT-sZOP7stohRm4-20" value="редактировать" style="whiteSpace=wrap;html=1;" vertex="1" parent="1">
                    <mxGeometry x="580" y="536" width="90" height="30" as="geometry"/>
                </mxCell>
                <mxCell id="rPJr6iT-sZOP7stohRm4-21" value="" style="html=1;verticalLabelPosition=bottom;labelBackgroundColor=#ffffff;verticalAlign=top;shadow=0;dashed=0;strokeWidth=2;shape=mxgraph.ios7.misc.select;fillColor=#0080f0;strokeColor=#ffffff;sketch=0;" vertex="1" parent="1">
                    <mxGeometry x="70" y="535" width="30" height="32" as="geometry"/>
                </mxCell>
                <mxCell id="rPJr6iT-sZOP7stohRm4-22" value="Удалить" style="whiteSpace=wrap;html=1;" vertex="1" parent="1">
                    <mxGeometry x="680" y="537" width="70" height="30" as="geometry"/>
                </mxCell>
                <mxCell id="rPJr6iT-sZOP7stohRm4-23" value="Дата добавления" style="text;html=1;align=center;verticalAlign=middle;resizable=0;points=[];autosize=1;strokeColor=none;fillColor=none;" vertex="1" parent="1">
                    <mxGeometry x="100" y="560" width="120" height="30" as="geometry"/>
                </mxCell>
                <mxCell id="rPJr6iT-sZOP7stohRm4-24" value="" style="whiteSpace=wrap;html=1;fillColor=#d5e8d4;strokeColor=#82b366;" vertex="1" parent="1">
                    <mxGeometry x="50" y="600" width="740" height="80" as="geometry"/>
                </mxCell>
                <mxCell id="rPJr6iT-sZOP7stohRm4-25" value="Названия" style="text;html=1;align=center;verticalAlign=middle;resizable=0;points=[];autosize=1;strokeColor=none;fillColor=none;" vertex="1" parent="1">
                    <mxGeometry x="100" y="600" width="80" height="30" as="geometry"/>
                </mxCell>
                <mxCell id="rPJr6iT-sZOP7stohRm4-26" value="Описание" style="text;html=1;align=center;verticalAlign=middle;resizable=0;points=[];autosize=1;strokeColor=none;fillColor=none;" vertex="1" parent="1">
                    <mxGeometry x="100" y="625" width="80" height="30" as="geometry"/>
                </mxCell>
                <mxCell id="rPJr6iT-sZOP7stohRm4-27" value="редактировать" style="whiteSpace=wrap;html=1;" vertex="1" parent="1">
                    <mxGeometry x="580" y="626" width="90" height="30" as="geometry"/>
                </mxCell>
                <mxCell id="rPJr6iT-sZOP7stohRm4-28" value="" style="html=1;verticalLabelPosition=bottom;labelBackgroundColor=#ffffff;verticalAlign=top;shadow=0;dashed=0;strokeWidth=2;shape=mxgraph.ios7.misc.select;fillColor=#0080f0;strokeColor=#ffffff;sketch=0;" vertex="1" parent="1">
                    <mxGeometry x="70" y="625" width="30" height="32" as="geometry"/>
                </mxCell>
                <mxCell id="rPJr6iT-sZOP7stohRm4-29" value="Удалить" style="whiteSpace=wrap;html=1;" vertex="1" parent="1">
                    <mxGeometry x="680" y="627" width="70" height="30" as="geometry"/>
                </mxCell>
                <mxCell id="rPJr6iT-sZOP7stohRm4-30" value="Дата добавления" style="text;html=1;align=center;verticalAlign=middle;resizable=0;points=[];autosize=1;strokeColor=none;fillColor=none;" vertex="1" parent="1">
                    <mxGeometry x="100" y="650" width="120" height="30" as="geometry"/>
                </mxCell>
                <mxCell id="SpATgMjYR0HLizh0WXKW-1" value="Меню сайта" style="whiteSpace=wrap;html=1;" vertex="1" parent="1">
                    <mxGeometry x="50" y="50" width="750" height="40" as="geometry"/>
                </mxCell>
                <mxCell id="SpATgMjYR0HLizh0WXKW-4" style="edgeStyle=none;html=1;exitX=0.5;exitY=1;exitDx=0;exitDy=0;entryX=0.75;entryY=0;entryDx=0;entryDy=0;" edge="1" parent="1" source="SpATgMjYR0HLizh0WXKW-2" target="SpATgMjYR0HLizh0WXKW-3">
                    <mxGeometry relative="1" as="geometry"/>
                </mxCell>
                <mxCell id="SpATgMjYR0HLizh0WXKW-2" value="" style="ellipse;whiteSpace=wrap;html=1;" vertex="1" parent="1">
                    <mxGeometry x="760" y="55" width="30" height="30" as="geometry"/>
                </mxCell>
                <mxCell id="SpATgMjYR0HLizh0WXKW-3" value="Выйти" style="rounded=0;whiteSpace=wrap;html=1;" vertex="1" parent="1">
                    <mxGeometry x="680" y="100" width="120" height="30" as="geometry"/>
                </mxCell>
                <mxCell id="5t_lrZVTskuhXKXgIqAl-1" value="Уведомления (Задача удалена)" style="whiteSpace=wrap;html=1;fillColor=#fff2cc;strokeColor=#d6b656;" vertex="1" parent="1">
                    <mxGeometry x="50" y="150" width="750" height="30" as="geometry"/>
                </mxCell>
            </root>
        </mxGraphModel>
    </diagram>
    <diagram id="Bv2XMHT9btEJP2RIZO_V" name="UI(Edit)">
        <mxGraphModel dx="1090" dy="787" grid="1" gridSize="10" guides="1" tooltips="1" connect="1" arrows="1" fold="1" page="1" pageScale="1" pageWidth="827" pageHeight="1169" math="0" shadow="0">
            <root>
                <mxCell id="0"/>
                <mxCell id="1" parent="0"/>
                <mxCell id="oqIQgOX1eVm6_Mske9GG-5" value="" style="html=1;verticalLabelPosition=bottom;labelBackgroundColor=#ffffff;verticalAlign=top;shadow=0;dashed=0;strokeWidth=2;shape=mxgraph.ios7.misc.select;fillColor=#0080f0;strokeColor=#ffffff;sketch=0;" vertex="1" parent="1">
                    <mxGeometry x="50" y="144" width="30" height="32" as="geometry"/>
                </mxCell>
                <mxCell id="oqIQgOX1eVm6_Mske9GG-6" value="Удалить" style="whiteSpace=wrap;html=1;" vertex="1" parent="1">
                    <mxGeometry x="710" y="130" width="70" height="60" as="geometry"/>
                </mxCell>
                <mxCell id="oqIQgOX1eVm6_Mske9GG-8" value="названия задачи" style="whiteSpace=wrap;html=1;" vertex="1" parent="1">
                    <mxGeometry x="94" y="130" width="596" height="60" as="geometry"/>
                </mxCell>
                <mxCell id="oqIQgOX1eVm6_Mske9GG-9" value="Описание задачи" style="whiteSpace=wrap;html=1;" vertex="1" parent="1">
                    <mxGeometry x="40" y="200" width="740" height="210" as="geometry"/>
                </mxCell>
                <mxCell id="oqIQgOX1eVm6_Mske9GG-10" value="Дата добавления" style="whiteSpace=wrap;html=1;" vertex="1" parent="1">
                    <mxGeometry x="40" y="420" width="150" height="40" as="geometry"/>
                </mxCell>
                <mxCell id="oqIQgOX1eVm6_Mske9GG-11" value="&lt;font style=&quot;font-size: 27px;&quot;&gt;Страница редактирования задачи&lt;/font&gt;" style="text;html=1;align=center;verticalAlign=middle;resizable=0;points=[];autosize=1;strokeColor=none;fillColor=none;" vertex="1" parent="1">
                    <mxGeometry x="40" y="30" width="450" height="50" as="geometry"/>
                </mxCell>
                <mxCell id="oqIQgOX1eVm6_Mske9GG-12" value="Сохранить изменения" style="whiteSpace=wrap;html=1;" vertex="1" parent="1">
                    <mxGeometry x="500" y="420" width="280" height="40" as="geometry"/>
                </mxCell>
                <mxCell id="oqIQgOX1eVm6_Mske9GG-14" value="Если данные в форме не редактируемые, кнопка сохранить не активная" style="text;html=1;align=center;verticalAlign=middle;resizable=0;points=[];autosize=1;strokeColor=none;fillColor=none;" vertex="1" parent="1">
                    <mxGeometry x="40" y="550" width="430" height="30" as="geometry"/>
                </mxCell>
                <mxCell id="oqIQgOX1eVm6_Mske9GG-15" value="Если форма была изменена, то кнопка сохранить активная" style="text;html=1;align=center;verticalAlign=middle;resizable=0;points=[];autosize=1;strokeColor=none;fillColor=none;" vertex="1" parent="1">
                    <mxGeometry x="40" y="570" width="360" height="30" as="geometry"/>
                </mxCell>
                <mxCell id="-znAsuW_RiMf48xRqwcB-1" value="При нажатии на кнаопку удалить, нужно сделать подтвержения действия" style="text;html=1;align=center;verticalAlign=middle;resizable=0;points=[];autosize=1;strokeColor=none;fillColor=none;" vertex="1" parent="1">
                    <mxGeometry x="40" y="608" width="430" height="30" as="geometry"/>
                </mxCell>
                <mxCell id="-znAsuW_RiMf48xRqwcB-2" value="И если подтверждения есть, то задача удаляеться и происходит перенаправления на главную страницу" style="text;html=1;align=center;verticalAlign=middle;resizable=0;points=[];autosize=1;strokeColor=none;fillColor=none;" vertex="1" parent="1">
                    <mxGeometry x="40" y="630" width="610" height="30" as="geometry"/>
                </mxCell>
                <mxCell id="-znAsuW_RiMf48xRqwcB-3" value="Отображаеться панель, для уведомления (Задача удалена )" style="text;html=1;align=center;verticalAlign=middle;resizable=0;points=[];autosize=1;strokeColor=none;fillColor=none;" vertex="1" parent="1">
                    <mxGeometry x="40" y="650" width="360" height="30" as="geometry"/>
                </mxCell>
            </root>
        </mxGraphModel>
    </diagram>
</mxfile>